<svg id="Grupo_1" data-name="Grupo 1" xmlns="http://www.w3.org/2000/svg" width="162.835" height="85.696" viewBox="0 0 162.835 85.696">
  <g id="logo-argor" transform="translate(0)">
    <path id="Trazado_1" data-name="Trazado 1" d="M144,41.172a5.532,5.532,0,1,1,5.532-5.532A5.528,5.528,0,0,1,144,41.172M161.392,32.4,129.582,3.67A13.914,13.914,0,0,0,120.113,0L6.33.053A6.357,6.357,0,0,0,0,6.437L.053,65a6.345,6.345,0,0,0,6.33,6.33l113.783-.053a14.17,14.17,0,0,0,9.469-3.67l31.81-28.778a4.365,4.365,0,0,0-.053-6.437"/>
    <path id="Trazado_2" data-name="Trazado 2" d="M30.069,58.214,25.6,45.926,21.186,58.214Zm1.436,3.936H19.8l-2.394,6.6H13.1L23.313,40.5h4.681L38.208,68.746H33.9Z" transform="translate(-6.132 -18.956)" fill="#fff"/>
    <path id="Trazado_3" data-name="Trazado 3" d="M64,55.66h6.171a5.379,5.379,0,0,0,5.479-5.639,5.32,5.32,0,0,0-5.479-5.639H64ZM69.588,59.6H64v9.149H59.8V40.5H70.173a9.333,9.333,0,0,1,9.575,9.575,9.227,9.227,0,0,1-5.958,8.883L79.961,68.8H75.333Z" transform="translate(-27.99 -18.956)" fill="#fff"/>
    <path id="Trazado_4" data-name="Trazado 4" d="M173.131,54.322c0-5.426-3.99-9.894-9.469-9.894a9.586,9.586,0,0,0-9.469,9.894c0,5.426,3.99,9.894,9.469,9.894s9.469-4.468,9.469-9.894m-23.831,0a14.39,14.39,0,1,1,14.362,14.522A14.372,14.372,0,0,1,149.3,54.322" transform="translate(-69.881 -18.629)" fill="#fff"/>
    <path id="Trazado_5" data-name="Trazado 5" d="M209.594,55.288h5.745a5.081,5.081,0,0,0,0-10.16h-5.745Zm5,4.628h-5V68.8H204.7V40.5h10.639a9.57,9.57,0,0,1,9.894,9.735,9.247,9.247,0,0,1-5.692,8.777l5.958,9.735h-5.532Z" transform="translate(-95.811 -18.956)" fill="#fff"/>
    <path id="Trazado_6" data-name="Trazado 6" d="M124.706,49.507H108.482v6.383h8.671c-1.17,2.607-3.564,4.043-6.862,4.043-4.468,0-7.288-3.511-7.288-8.139a7.778,7.778,0,0,1,8.086-8.139,7.184,7.184,0,0,1,5.958,3.192l5.107-3.883a13.874,13.874,0,0,0-8.032-5.319V34.4h-6.649v3.3A14.2,14.2,0,0,0,96.3,51.848,14.331,14.331,0,0,0,107.471,66.1v2.287h6.649V65.944c6.33-1.543,10.586-7.075,10.586-16.437" transform="translate(-45.074 -16.101)" fill="#fc0"/>
    <path id="Trazado_7" data-name="Trazado 7" d="M17.636,154.5H16.253v1.383h-1.17V154.5H13.7v-1.117h1.383V152h1.17v1.383h1.383Z" transform="translate(-6.412 -71.145)"/>
    <path id="Trazado_8" data-name="Trazado 8" d="M28.715,151.4a2.057,2.057,0,0,0-2.128-2.287h-1.17v4.628h1.17a2.129,2.129,0,0,0,2.128-2.341m1.223,0a3.286,3.286,0,0,1-3.3,3.458H24.3V148h2.341a3.243,3.243,0,0,1,3.3,3.4" transform="translate(-11.374 -69.271)"/>
    <rect id="Rect치ngulo_1" data-name="Rect치ngulo 1" width="1.17" height="6.862" transform="translate(19.363 78.674)"/>
    <path id="Trazado_9" data-name="Trazado 9" d="M46.3,147.9v6.862H45.081l-3.458-4.841v4.841H40.4V147.9h1.223l3.458,4.894V147.9Z" transform="translate(-18.909 -69.226)"/>
    <path id="Trazado_10" data-name="Trazado 10" d="M54.323,149.017v1.7H56.4v1.117H54.323v1.809h2.66v1.117H53.1V147.9h3.883v1.117Z" transform="translate(-24.854 -69.226)"/>
    <path id="Trazado_11" data-name="Trazado 11" d="M63.27,151.564h1.383a1.173,1.173,0,0,0,1.223-1.223,1.144,1.144,0,0,0-1.223-1.223H63.27Zm1.223,1.117H63.27v2.181H62.1V148h2.607a2.337,2.337,0,0,1,2.394,2.341,2.194,2.194,0,0,1-1.383,2.128l1.436,2.394H65.77Z" transform="translate(-29.066 -69.272)"/>
    <path id="Trazado_12" data-name="Trazado 12" d="M78.4,151.311a2.3,2.3,0,0,0-2.287-2.394,2.328,2.328,0,0,0-2.287,2.394,2.29,2.29,0,1,0,4.575,0m-5.8,0a3.511,3.511,0,1,1,3.511,3.511,3.474,3.474,0,0,1-3.511-3.511" transform="translate(-33.981 -69.179)"/>
    <path id="Trazado_13" data-name="Trazado 13" d="M97.136,154.5H95.7v1.383H94.583V154.5H93.2v-1.117h1.383V152H95.7v1.383h1.436Z" transform="translate(-43.623 -71.145)"/>
    <path id="Trazado_14" data-name="Trazado 14" d="M105.323,152.641a1.076,1.076,0,0,0,1.117,1.064c.638,0,1.011-.319,1.011-.745,0-.532-.532-.8-1.33-1.224-1.383-.8-1.862-1.277-1.862-2.181a1.842,1.842,0,0,1,2.021-1.755,2.012,2.012,0,0,1,2.075,2.075h-1.17c-.053-.585-.372-.957-.9-.957-.479,0-.851.266-.851.692,0,.532.372.745,1.117,1.117,1.33.692,2.075,1.277,2.075,2.341,0,1.17-.957,1.809-2.181,1.809a2.264,2.264,0,0,1-2.341-2.181h1.223Z" transform="translate(-48.725 -69.179)"/>
    <path id="Trazado_15" data-name="Trazado 15" d="M115.223,149.017v1.7H117.3v1.117h-2.075v1.809h2.66v1.117H114V147.9h3.883v1.117Z" transform="translate(-53.358 -69.226)"/>
    <path id="Trazado_16" data-name="Trazado 16" d="M129.162,150.938c0,2.447-1.436,3.883-3.458,3.883a3.511,3.511,0,1,1,2.819-5.639l-.9.692a2.134,2.134,0,0,0-1.809-.958,2.307,2.307,0,0,0-2.341,2.394,2.244,2.244,0,0,0,2.181,2.394,2.136,2.136,0,0,0,2.181-1.649h-2.5v-1.117Z" transform="translate(-57.243 -69.179)"/>
    <path id="Trazado_17" data-name="Trazado 17" d="M139.466,154.868c-1.7,0-2.766-.958-2.766-3.032V147.9h1.17v3.936c0,1.436.585,1.915,1.6,1.915s1.543-.479,1.543-1.915V147.9h1.17v3.936c.053,2.128-1.011,3.032-2.713,3.032" transform="translate(-63.983 -69.226)"/>
    <path id="Trazado_18" data-name="Trazado 18" d="M149.97,151.564h1.383a1.173,1.173,0,0,0,1.223-1.223,1.144,1.144,0,0,0-1.223-1.223H149.97Zm1.224,1.117H149.97v2.181H148.8V148h2.607a2.337,2.337,0,0,1,2.394,2.341,2.194,2.194,0,0,1-1.383,2.128l1.436,2.394h-1.33Z" transform="translate(-69.647 -69.272)"/>
    <rect id="Rect치ngulo_2" data-name="Rect치ngulo 2" width="1.17" height="6.862" transform="translate(85.217 78.674)"/>
    <path id="Trazado_19" data-name="Trazado 19" d="M168.615,151.4a2.057,2.057,0,0,0-2.128-2.287h-1.17v4.628h1.17a2.129,2.129,0,0,0,2.128-2.341m1.223,0a3.286,3.286,0,0,1-3.3,3.458H164.2V148h2.341a3.243,3.243,0,0,1,3.3,3.4" transform="translate(-76.855 -69.271)"/>
    <path id="Trazado_20" data-name="Trazado 20" d="M178.8,152.156l-.958-2.66-.958,2.66Zm.372,1.117h-2.713l-.532,1.489H174.7l2.5-6.862h1.33l2.5,6.862h-1.223Z" transform="translate(-81.769 -69.226)"/>
    <path id="Trazado_21" data-name="Trazado 21" d="M192.115,151.4a2.057,2.057,0,0,0-2.128-2.287h-1.17v4.628h1.17a2.129,2.129,0,0,0,2.128-2.341m1.223,0a3.286,3.286,0,0,1-3.3,3.458H187.7V148h2.341a3.243,3.243,0,0,1,3.3,3.4" transform="translate(-87.854 -69.271)"/>
  </g>
</svg>
